<svg xmlns="http://www.w3.org/2000/svg" style="display: none;"><defs>
<symbol id="adjacent_horizontal_copy" viewBox="0 0 24 24"><path fill-rule="evenodd" d="M5 12h4v-1h2v2h-.99v4H11v2H9v-1H5v1H3v-2h1.01v-4H3v-2h2v1Zm.01 5h4v-4h-4v4ZM15 12h4v-1h2v2h-.99v4H21v2h-2v-1h-4v1h-2v-2h1.01v-4H13v-2h2v1Zm.01 5h4v-4h-4v4Z" clip-rule="evenodd"/><path d="M7 6h4v1H7v2L4 6.5 7 4v2Zm13 .5L17 9V7h-4V6h4V4l3 2.5Z"/></symbol>
<symbol id="adjacent_horizontal_move" viewBox="0 0 24 24"><path fill-rule="evenodd" d="M5 12h4v-1h2v2h-.99v4H11v2H9v-1H5v1H3v-2h1.01v-4H3v-2h2v1Zm.01 5h4v-4h-4v4Z" clip-rule="evenodd" opacity=".4"/><path fill-rule="evenodd" d="M15 12h4v-1h2v2h-.99v4H21v2h-2v-1h-4v1h-2v-2h1.01v-4H13v-2h2v1Zm.01 5h4v-4h-4v4Z" clip-rule="evenodd"/><path d="m20.01 6.5-3 2.5V7h-4V6h4V4l3 2.5Zm-16 0 3 2.5V7h4V6h-4V4l-3 2.5Z"/></symbol>
<symbol id="adjacent_settings" viewBox="0 0 24 24"><path fill-rule="evenodd" d="M13.1 10.64c.43.1.84.27 1.2.5l1.41-.91 1.06 1.06-.9 1.4c.22.37.39.78.5 1.2l1.63.36v1.5l-1.64.35c-.1.43-.27.84-.5 1.2l.91 1.41-1.06 1.06-1.4-.9c-.37.22-.78.39-1.21.5L12.75 21h-1.5l-.35-1.64c-.43-.1-.84-.27-1.2-.5l-1.41.91-1.06-1.06.9-1.4a4.61 4.61 0 0 1-.5-1.21L6 15.75v-1.5l1.64-.35c.1-.43.27-.84.5-1.2l-.91-1.41 1.06-1.06 1.4.9c.37-.22.78-.39 1.2-.5L11.26 9h1.5l.35 1.64ZM12 13a2 2 0 1 0 0 4 2 2 0 0 0 0-4ZM7 3h2V2h2v2h-.99v2H11v2H9V7H7v1H5V6h1.01V4H5V2h2v1Zm.01 3h2V4h-2v2ZM14 3h2V2h2v2h-.99v2H18v2h-2V7h-2v1h-2V6h1.01V4H12V2h2v1Zm.01 3h2V4h-2v2Z" clip-rule="evenodd"/></symbol>
<symbol id="adjacent_vertical_copy" viewBox="0 0 24 24"><path fill-rule="evenodd" d="M12 5v4h1v2h-2v-.99H7V11H5V9h1V5H5V3h2v1.01h4V3h2v2h-1Zm-5 .01v4h4v-4H7ZM12 15v4h1v2h-2v-.99H7V21H5v-2h1v-4H5v-2h2v1.01h4V13h2v2h-1Zm-5 .01v4h4v-4H7Z" clip-rule="evenodd"/><path d="M18 7v4h-1V7h-2l2.5-3L20 7h-2Zm-.5 13L15 17h2v-4h1v4h2l-2.5 3Z"/></symbol>
<symbol id="adjacent_vertical_move" viewBox="0 0 24 24"><path fill-rule="evenodd" d="M12 5v4h1v2h-2v-.99H7V11H5V9h1V5H5V3h2v1.01h4V3h2v2h-1Zm-5 .01v4h4v-4H7Z" clip-rule="evenodd" opacity=".4"/><path fill-rule="evenodd" d="M12 15v4h1v2h-2v-.99H7V21H5v-2h1v-4H5v-2h2v1.01h4V13h2v2h-1Zm-5 .01v4h4v-4H7Z" clip-rule="evenodd"/><path d="m17.5 20.01-2.5-3h2v-4h1v4h2l-2.5 3Zm0-16-2.5 3h2v4h1v-4h2l-2.5-3Z"/></symbol>
<symbol id="align_h_center" viewBox="0 0 24 24"><path d="M13 5h4v6h-4v2h6v5h-6v3h-1v-3H6v-5h6v-2H8V5h4V3h1v2Z"/></symbol>
<symbol id="align_left_right" viewBox="0 0 24 24"><path d="M1 3v18h1V3H1Zm2 2h4v6H3V5Zm0 8h7v6H3v-6Zm20 8V3h-1v18h1Zm-2-2h-7v-6h7v6Zm0-8h-4V5h4v6Z"/></symbol>
<symbol id="align_top_bottom" viewBox="0 0 24 24"><path d="M21 1H3v1h18V1Zm-2 2v4h-6V3h6Zm-8 0v7H5V3h6ZM3 23h18v-1H3v1Zm2-2v-7h6v7H5Zm8 0v-4h6v4h-6Z"/></symbol>
<symbol id="align_v_center" viewBox="0 0 24 24"><path d="M19 12v4h-6v-4h-2v6H6v-6H3v-1h3V5h5v6h2V7h6v4h2v1h-2Z"/></symbol>
<symbol id="color_to_gradient" viewBox="0 0 24 24"><path d="M11 14V9l2.5 2.5L11 14Zm10-6h1v7h-1z"/><path d="M20 8h1v7h-1z" opacity=".8"/><path d="M19 8h1v7h-1z" opacity=".6"/><path d="M18 8h1v7h-1z" opacity=".5"/><path d="M17 8h1v7h-1z" opacity=".4"/><path d="M16 8h1v7h-1z" opacity=".3"/><path d="M15 8h1v7h-1z" opacity=".1"/><path d="M2 8h7v7H2z" opacity=".5"/></symbol>
<symbol id="flip_diagonal" viewBox="0 0 24 24"><path d="M11.161 4.005a.5.5 0 0 1 .35.764l-5.59 8.783c-.268.421-.92.231-.921-.269V5a1 1 0 0 1 .897-.995L6 4h5.089l.072.005ZM6 5v6.566L10.178 5H6Zm1.84 13.541L7 18l.563-.875.84.541-.562.875Zm1.688-2.625-.84-.541 1.124-1.75.841.541-1.125 1.75Zm2.25-3.5-.84-.541 1.124-1.75.841.541-1.125 1.75ZM19 18a1 1 0 0 1-1 1h-5.089a.5.5 0 0 1-.422-.769l5.59-8.783c.268-.421.92-.231.921.269V18Zm-4.972-9.084-.84-.541 1.124-1.75.841.541-1.125 1.75Zm2.25-3.5-.84-.541L16 4l.84.541-.562.875Z"/></symbol>
<symbol id="flip_horizontal" viewBox="0 0 24 24"><path d="M12 20h-1v-1h1v1ZM8.078 7.448c.27-.421.922-.231.922.269V16a1 1 0 0 1-.897.995L8 17H2.911l-.072-.005a.5.5 0 0 1-.35-.764l5.59-8.783ZM12 17h-1v-2h1v2Zm2-9.283c0-.5.654-.69.922-.269l5.59 8.783a.5.5 0 0 1-.423.769H15a1 1 0 0 1-1-1V7.717ZM3.823 16H8V9.434L3.823 16ZM12 13h-1v-2h1v2Zm0-4h-1V7h1v2Zm0-4h-1V4h1v1Z"/></symbol>
<symbol id="flip_vertical" viewBox="0 0 24 24"><path d="M4 12v-1h1v1H4Zm12.552-3.922c.421.269.231.922-.269.922H8a1 1 0 0 1-.995-.897L7 8V2.911l.005-.072a.5.5 0 0 1 .764-.35l8.783 5.59ZM7 12v-1h2v1H7Zm9.283 2c.5 0 .69.653.269.922L7.769 20.51A.5.5 0 0 1 7 20.089V15a1 1 0 0 1 1-1h8.283ZM8 3.822V8h6.566L8 3.822ZM11 12v-1h2v1h-2Zm4 0v-1h2v1h-2Zm4 0v-1h1v1h-1Z"/></symbol>
<symbol id="g2c_c2g" viewBox="0 0 24 24"><path d="M11 19v-5l2.5 2.5L11 19Zm0-9V5l2.5 2.5L11 10ZM8 4h1v7H8zm13 9h1v7h-1z"/><path d="M7 4h1v7H7zm13 9h1v7h-1z" opacity=".8"/><path d="M6 4h1v7H6zm13 9h1v7h-1z" opacity=".6"/><path d="M5 4h1v7H5zm13 9h1v7h-1z" opacity=".5"/><path d="M4 4h1v7H4zm13 9h1v7h-1z" opacity=".4"/><path d="M3 4h1v7H3zm13 9h1v7h-1z" opacity=".3"/><path d="M2 4h1v7H2zm13 9h1v7h-1z" opacity=".1"/><path d="M22 4h-7v7h7zM9 13H2v7h7z" opacity=".5"/></symbol>
<symbol id="gradient_to_color" viewBox="0 0 24 24"><path d="M11 14V9l2.5 2.5L11 14ZM8 8h1v7H8z"/><path d="M7 8h1v7H7z" opacity=".8"/><path d="M6 8h1v7H6z" opacity=".6"/><path d="M5 8h1v7H5z" opacity=".5"/><path d="M4 8h1v7H4z" opacity=".4"/><path d="M3 8h1v7H3z" opacity=".3"/><path d="M2 8h1v7H2z" opacity=".1"/><path d="M22 8h-7v7h7z" opacity=".5"/></symbol>
<symbol id="next_object_above_below" viewBox="0 0 24 24"><path d="M10 6a4 4 0 0 1 3.874 5H17v7h-7v-4a4 4 0 0 1 0-8Zm3.464 6A4.007 4.007 0 0 1 11 13.874V17h5v-5h-2.536ZM5 15l-2.5-2.5L5 10v5Zm16.5-2.5L19 15v-5l2.5 2.5ZM10 7a3 3 0 0 0 0 6v-2h2.826A2.993 2.993 0 0 0 10 7Zm1 5.825c.478-.17.9-.455 1.231-.825H11v.825Z"/></symbol>
<symbol id="nudge_horizontal_0.01" viewBox="0 0 24 24"><path d="M3 11h2v1H3v2l-3-2.5L3 9v2Zm18 0h-2v1h2v2l3-2.5L21 9v2ZM8 8a1 1 0 0 1 1 1v4a1 1 0 0 1-1 1H7a1 1 0 0 1-1-1V9a1 1 0 0 1 1-1h1ZM7 9v4h1V9H7Zm7-1a1 1 0 0 1 1 1v4a1 1 0 0 1-1 1h-1a1 1 0 0 1-1-1V9a1 1 0 0 1 1-1h1Zm-1 1v4h1V9h-1Zm5 5h-1V9h-1V8h2v6Zm-8-1h1v1h-1z"/></symbol>
<symbol id="nudge_horizontal_0.1" viewBox="0 0 24 24"><path d="M3 11h3v1H3v2l-3-2.5L3 9v2Zm18 0h-3v1h3v2l3-2.5L21 9v2ZM10 8a1 1 0 0 1 1 1v4a1 1 0 0 1-1 1H9a1 1 0 0 1-1-1V9a1 1 0 0 1 1-1h1ZM9 9v4h1V9H9Zm7 5h-1V9h-1V8h2v6Zm-4-1h1v1h-1z"/></symbol>
<symbol id="nudge_horizontal_1" viewBox="0 0 24 24"><path d="M3 11h3v1H3v2l-3-2.5L3 9v2Zm18 0h-3v1h3v2l3-2.5L21 9v2Zm-8 3h-1V9h-1V8h2v6Z"/></symbol>
<symbol id="nudge_horizontal_10" viewBox="0 0 24 24"><path d="M3 11h3v1H3v2l-3-2.5L3 9v2Zm18 0h-3v1h3v2l3-2.5L21 9v2Zm-7-3a1 1 0 0 1 1 1v4a1 1 0 0 1-1 1h-1a1 1 0 0 1-1-1V9a1 1 0 0 1 1-1h1Zm-1 1v4h1V9h-1Zm-3 5H9V9H8V8h2v6Z"/></symbol>
<symbol id="nudge_horizontal" viewBox="0 0 24 24"><path d="M7 11h4v1H7v2l-3-2.5L7 9v2Zm13 .5L17 14v-2h-4v-1h4V9l3 2.5Z"/></symbol>
<symbol id="nudge_vertical_0.01" viewBox="0 0 24 24"><path d="M12 3v3h-1V3H9l2.5-3L14 3h-2Zm0 18v-3h-1v3H9l2.5 3 2.5-3h-2ZM8 9a1 1 0 0 1 1 1v4a1 1 0 0 1-1 1H7a1 1 0 0 1-1-1v-4a1 1 0 0 1 1-1h1Zm-1 1v4h1v-4H7Zm7-1a1 1 0 0 1 1 1v4a1 1 0 0 1-1 1h-1a1 1 0 0 1-1-1v-4a1 1 0 0 1 1-1h1Zm-1 1v4h1v-4h-1Zm5 5h-1v-5h-1V9h2v6Zm-8-1h1v1h-1z"/></symbol>
<symbol id="nudge_vertical_0.1" viewBox="0 0 24 24"><path d="M13 3v3h-1V3h-2l2.5-3L15 3h-2Zm0 18v-3h-1v3h-2l2.5 3 2.5-3h-2ZM10 9a1 1 0 0 1 1 1v4a1 1 0 0 1-1 1H9a1 1 0 0 1-1-1v-4a1 1 0 0 1 1-1h1Zm-1 1v4h1v-4H9Zm7 5h-1v-5h-1V9h2v6Zm-4-1h1v1h-1z"/></symbol>
<symbol id="nudge_vertical_1" viewBox="0 0 24 24"><path d="M13 3v3h-1V3h-2l2.5-3L15 3h-2Zm0 18v-3h-1v3h-2l2.5 3 2.5-3h-2Zm0-6h-1v-5h-1V9h2v6Z"/></symbol>
<symbol id="nudge_vertical_10" viewBox="0 0 24 24"><path d="M12 3v3h-1V3H9l2.5-3L14 3h-2Zm0 18v-3h-1v3H9l2.5 3 2.5-3h-2Zm2-12a1 1 0 0 1 1 1v4a1 1 0 0 1-1 1h-1a1 1 0 0 1-1-1v-4a1 1 0 0 1 1-1h1Zm-1 1v4h1v-4h-1Zm-3 5H9v-5H8V9h2v6Z"/></symbol>
<symbol id="nudge_vertical" viewBox="0 0 24 24"><path d="M12 7v4h-1V7H9l2.5-3L14 7h-2Zm-.5 13L9 17h2v-4h1v4h2l-2.5 3Z"/></symbol>
<symbol id="prev_next_artboard" viewBox="0 0 24 24"><path d="M13 11h5v7H8v-2H6V6h7v5Zm-4 6h8v-5H9v5Zm-4-2-2.5-2.5L5 10v5Zm2 0h1v-4h4V7H7v8Zm14.5-2.5L19 15v-5l2.5 2.5Z"/></symbol>
<symbol id="random_fill_color" viewBox="0 0 24 24"><path d="M18 18h-7v-4h2v2h3v-3h-2v-2h4v7Z" opacity=".4"/><path d="M13 13H6V6h7v7Z"/></symbol>
<symbol id="random_layer_color" viewBox="0 0 24 24"><path d="m18 14-6 4-6-4 2-1.333 4 2.666 4-2.666L18 14Z"/><path d="m18 10-6 4-6-4 6-4 6 4Z"/></symbol>
<symbol id="random_stroke_color" viewBox="0 0 24 24"><path d="M13 10h-3v3H6V6h7v4Z" opacity=".4"/><path fill-rule="evenodd" d="M18 18h-7v-7h7v7Zm-5-2h3v-3h-3v3Z" clip-rule="evenodd"/></symbol>
<symbol id="random_stroke_fill_color" viewBox="0 0 24 24"><path d="M19 19h-9v-5h2v3h5v-5h-3v-2h5v9Z"/><path d="M13 13H5V5h8v8Z"/></symbol>
<symbol id="rotation_clear" viewBox="0 0 24 24"><path d="M7.35 5.25a7.5 7.5 0 0 1 9.45.95l-.7.7a6.5 6.5 0 0 0-8.14-.85l7.87 10.3A6.51 6.51 0 0 0 17.5 14h-2l3-3 2.5 3h-2.43a7.5 7.5 0 0 1-2.13 3.14l1.96 2.56-.8.6-1.95-2.55a7.5 7.5 0 0 1-9.45-.95l.7-.7a6.5 6.5 0 0 0 8.14.85L7.17 6.65A6.49 6.49 0 0 0 5.5 9h2l-3 3L2 9h2.43a7.5 7.5 0 0 1 2.13-3.14L4.6 3.3l.8-.6 1.95 2.55Z"/></symbol>
<symbol id="strokes_up_down" viewBox="0 0 24 24"><path d="M18 18H6v-4h12v4Zm0-6H6V9h12v3Zm0-5H6V6h12v1Z"/></symbol>
<symbol id="tabs/align" viewBox="0 0 24 24"><path d="M5 20H4V4h1v16Z"/><path fill-rule="evenodd" d="M20 18H7v-5h13v5ZM8 17h11v-3H8v3Zm5-6H7V6h6v5Zm-5-1h4V7H8v3Z" clip-rule="evenodd"/></symbol>
<symbol id="tabs/color" viewBox="0 0 24 24"><path fill-rule="evenodd" d="M20 6.03c0 .47-.16.97-.59 1.4l-1.74 1.74.83.83-2 2-.5-.5-6.03 6.04c-.82.03-1.6.44-1.93 1.23A1.95 1.95 0 0 1 6.14 20 2.2 2.2 0 0 1 4 17.88c0-.79.41-1.49 1.1-1.85.79-.43 1.33-1.08 1.36-2l6.03-6.04L12 7.5l2-2 .83.83 1.75-1.74A2 2 0 0 1 20 6.03ZM7.43 14.47a3.04 3.04 0 0 1-1.77 2.4c-.42.2-.66.57-.66 1.01 0 .56.54 1.12 1.15 1.12.48 0 .8-.2.97-.62a3.04 3.04 0 0 1 2.4-1.8l5.92-5.92-2.1-2.1-5.91 5.91ZM18 5c-.28 0-.52.11-.72.3l-2.45 2.45L14 6.9l-.44.44 3.08 3.1.45-.45-.84-.83 2.46-2.45a1 1 0 0 0 .29-.7C19 5.47 18.54 5 18 5Z" clip-rule="evenodd"/></symbol>
<symbol id="tabs/nudge" viewBox="0 0 24 24"><path d="M12 17h2l-2.5 3L9 17h2v-4h1v4Zm-6-6h4v1H6v2l-3-2.5L6 9v2Zm14 .5L17 14v-2h-4v-1h4V9l3 2.5ZM14 6h-2v4h-1V6H9l2.5-3L14 6Z"/></symbol>
<symbol id="tabs/rotate" viewBox="0 0 24 24"><path d="M19.5 14h-1.45c0 3.22-2 6.2-4.97 7.44a8.12 8.12 0 0 1-8.77-1.75l.35-.35.35-.35c2 2 5.08 2.6 7.69 1.53A7.11 7.11 0 0 0 17.05 14H15.5l2-2 2 2Z"/><path fill-rule="evenodd" d="M8 11h4v-1h2v2h-1v4h1v2h-2v-1H8v1H6v-2h1v-4H6v-2h2v1Zm0 5h4v-4H8v4Z" clip-rule="evenodd"/><path d="M6.92 6.56a8.13 8.13 0 0 1 8.77 1.75l-.35.35-.35.35c-2-2-5.08-2.6-7.69-1.53A7.12 7.12 0 0 0 2.95 14H4.5l-2 2-2-2h1.45c0-3.22 2-6.2 4.97-7.44ZM23 4l-1.15-1.15-4 4L19 8h-3V5l1.15 1.15 4-4L20 1h3v3Z"/><path d="M23 17h-4v-1h3V6h1v11ZM18 2H8v3H7V1h11v1Z" opacity=".4"/></symbol>
<symbol id="tabs/scale" viewBox="0 0 24 24"><path fill-rule="evenodd" d="M11 20H4v-7h7v7Zm-6-1h5v-5H5v5Z" clip-rule="evenodd"/><path d="M20 19h-7v-1h6V5H6v6H5V4h15v15Z"/><path d="m18 9.5-1.4-1.4-2.5 2.5 1.4 1.4H12V8.5l1.4 1.4 2.5-2.5L14.5 6H18v3.5Z"/></symbol>
<symbol id="tabs/select" viewBox="0 0 24 24"><path fill-rule="evenodd" d="M20 15h-7l-5 5V3l12 12ZM9 17.59 12.59 14h5L9 5.41V17.6Z" clip-rule="evenodd"/></symbol>
<symbol id="undo" viewBox="0 0 24 24"><path d="M12 5a7 7 0 1 1-7 7h2a5 5 0 1 0 5-5v3L8 6l4-4v3Z"/></symbol>
<symbol id="zoom_selected" viewBox="0 0 24 24"><path fill-rule="evenodd" d="M13 8.03a4.5 4.5 0 0 1 2.78 7.55l3.07 3.07-.7.7-3.13-3.12a4.5 4.5 0 0 1-7-3.23H6V6h7v2.03ZM13 13H9.04A3.5 3.5 0 1 0 13 9.04V13Zm-1-3.96A3.5 3.5 0 0 0 9.04 12H12V9.04ZM7 12h1.03A4.5 4.5 0 0 1 12 8.03V7H7v5Z" clip-rule="evenodd"/></symbol>
</defs></svg>