<svg xmlns="http://www.w3.org/2000/svg" style="display: none;"><defs>
<symbol id="tabs"    viewBox="0 0 24 24"><path d="M7 5a2 2 0 0 1 1.99 1.8l.02.4A2 2 0 0 0 11 9h7a2 2 0 0 1 2 2v6a2 2 0 0 1-2 2H6a2 2 0 0 1-2-2V7c0-1.1.9-2 2-2h1Zm5 0a2 2 0 0 1 2 2v1h-2.5a1.5 1.5 0 0 1 0-3h.5Zm5 0a2 2 0 0 1 2 2v1h-4V7c0-1.1.9-2 2-2Z"/></symbol>
<symbol id="atlas"   viewBox="0 0 24 24"><path fill="#125" d="M18.03 1H5.97A4.97 4.97 0 0 0 1 5.97v12.06A4.97 4.97 0 0 0 5.97 23h12.06A4.97 4.97 0 0 0 23 18.03V5.97A4.97 4.97 0 0 0 18.03 1Z"/><path fill="#26D" d="M18.2 9.47 16.46 8.4l.04-.02 2.68.94a4.15 4.15 0 0 0-6.15-3.97l-1.82 1v-.06l2.16-1.85A4.16 4.16 0 0 0 6.84 7.8L6.8 9.84l-.04-.02-.52-2.8a4.16 4.16 0 0 0-.36 7.32l1.76 1.08-.05.02-2.67-.94a4.15 4.15 0 0 0 6.15 3.97l1.81-.99v.05l-2.16 1.85a4.16 4.16 0 0 0 6.52-3.36l.05-2.05.04.02.53 2.8a4.15 4.15 0 0 0 .36-7.32Z"/><path fill="#fff" d="m15.97 9.37-2.58 7.05a.88.88 0 0 1-1.68-.08l-.66-2.57a.88.88 0 0 0-.65-.63l-2.54-.63a.88.88 0 0 1-.1-1.68l7.07-2.6a.89.89 0 0 1 1.14 1.14Z"/></symbol>
<symbol id="brave"   viewBox="0 0 24 24"><path fill="#E32" d="m15.5 0 1.86 2h2.14l2.25 2.5-1.02 1.13L22 7l-3 12-7 5-7-5L2 7l1.27-1.37L2.25 4.5 4.5 2h2.14L8.5 0h7Z"/><path fill="#fff" d="M15.5 16.5 12 19l-3.5-2.5 3.5-2 3.5 2Z"/><path fill="#fff" d="m15 4.5 2-.5 3 4-3.5 4 1 1.5L16 16l-3.75-2.5v-.75L15.01 11l-1.26-3s2.67-1.08 3.75-1.5L15 6.25l-2 .5.75 4.25-1.75.35-1.75-.35.75-4.25-2-.5-2.5.25c1.08.42 3.75 1.5 3.75 1.5l-1.26 3 2.76 1.75v.75L8 16l-1.5-2.5 1-1.5L4 8l3-4 2 .5 3-1 3 1Z"/></symbol>
<symbol id="chrome"  viewBox="0 0 24 24"><path fill="#FC0" d="M21.52 6.5A11 11 0 0 1 23 12c0 6-5 11-11 11V6.5h9.52Z"/><path fill="#183" d="M12 23a11 11 0 0 1-5.5-1.47A11.1 11.1 0 0 1 2.47 6.5l14.3 8.25L12 23Z"/><path fill="#D32" d="M6.5 2.47A11.1 11.1 0 0 1 21.53 6.5H12V12l-4.76 2.75L2.47 6.5A11 11 0 0 1 6.5 2.47Z"/><path fill="#FFF" d="M12 18a6 6 0 1 0 0-12 6 6 0 0 0 0 12Z"/><path fill="#17E" d="M12 16.75a4.75 4.75 0 1 0 0-9.5 4.75 4.75 0 0 0 0 9.5Z"/></symbol>
<symbol id="comet"   viewBox="0 0 24 24"><path fill="#1BC" d="M4.62 11.44a9.6 9.6 0 0 1 9.57-9.4c2.83 0 5.2 1.23 6.8 2.85.08.08.1.1.1.18 0 .14-.12.22-.22.22s-.14-.05-.22-.12a8.3 8.3 0 0 0-14.2 5.9c0 4.83 4.24 7.55 4.24 7.55l2.87-2.88C11.55 13.94 10 12.7 10 9.81a6.05 6.05 0 0 1 10.3-4.3c.09.1.13.13.13.23 0 .13-.11.22-.22.22-.1 0-.14-.05-.21-.13a4.82 4.82 0 0 0-8.25 3.43c0 2.46 1.53 3.58 3.18 5.1l2.46-2.47c-1.58-1.5-2.58-2.18-2.58-3.7a2.83 2.83 0 0 1 4.83-2c.87.86 1.03 1.25 1.7 1.25.64 0 1.16-.52 1.16-1.16C22.5 5.3 18.76 1 12.89 1 5.21 1 .99 7.54.99 12.97 1 19.67 6.35 23 6.35 23l2.92-2.94c-3.23-2.64-4.64-5.72-4.64-8.62Z"/><path fill="#0DE" d="M2.93 6.47c.59.74 1.3 1.5 2.12 2.24a8.9 8.9 0 0 0-.43 2.73c0 2.9 1.4 5.98 4.64 8.62l-2.57 2.58A86.62 86.62 0 0 0 1.6 9.3c.33-.97.78-1.93 1.34-2.83Z"/><path fill="#0DE" d="M6.52 9.97a58.16 58.16 0 0 0 4.6 3.33c.62.85 1.48 1.59 2.44 2.44l-2.87 2.88c-.03-.02-4.24-2.73-4.24-7.54 0-.38.03-.75.07-1.1Z"/></symbol>
<symbol id="edge"    viewBox="0 0 24 24"><path fill="#3CB" d="M14.1 13.8c-.37.4-.38.78.11 1.1 1.23.87 3.56.75 3.57.75A5.31 5.31 0 0 0 23 10.38C23.08 4.71 17.17 1 12 1A11.1 11.1 0 0 0 1 11.86C1.5 5 14.5 4.5 14.75 12.1c0 .57-.3 1.3-.66 1.7Z"/><path fill="#19D" d="M1 11.86c.45-7.53 13.39-7.34 13.74-.07-.15-2.03-2.32-3.01-4.08-2.19C4 13.5 7.5 24 15.48 22.45 8.4 24.8.93 19.28 1 11.87Z"/><path fill="#048" d="M10.66 9.6a2.75 2.75 0 0 0-1.41 2.35c0 5.67 7.28 7.69 11.6 5.44.3-.16.64.19.46.48a10.9 10.9 0 0 1-5.83 4.57C7.71 24.9 3.4 13.19 10.66 9.6Z"/></symbol>
<symbol id="firefox" viewBox="0 0 24 24"><path fill="#F20" d="M19 3.5c2.5 2 4 5 4 8.5A11 11 0 1 1 4.91 3.6c-.06.92.18 2 .59 2.4A7.23 7.23 0 0 1 8 4v2.5l.75.75H19V3.5Z"/><path fill="#FC0" d="M15.5 0c2 3.5 5.5 4.5 5.5 10 0 4.53-4 7.5-8.5 7.5-4 0-6-3-6-6-1.97 0-3-1.5-3-1.5s2-1.5 4-.5 3.5 0 3.5 0C11 4 12 2 15.5 0Z"/><path fill="#60B" d="m12 10-1 1c-3.5 0-4.04 2-4.04 2 .54 2.5 2.54 4 5.04 4 4.5 0 6.58-6.05 2-8.5 1-.25 2.36.2 2.96.62-1.7-2.97-5.53-3.98-8.21-1.87C9.5 8 11 10 12 10Z"/></symbol>
<symbol id="opera"   viewBox="0 0 24 24"><path fill="#F12" d="M12 1.002c-6.075 0-11 4.924-11 11C1 17.9 5.644 22.714 11.476 22.987a10.96 10.96 0 0 0 7.855-2.786 7.937 7.937 0 0 1-4.409 1.346c-2.62 0-4.965-1.299-6.543-3.348-1.216-1.436-2.004-3.558-2.058-5.94v-.518c.054-2.382.842-4.504 2.058-5.94 1.578-2.049 3.924-3.348 6.543-3.348A7.94 7.94 0 0 1 19.331 3.8a10.958 10.958 0 0 0-7.29-2.8h-.042Z"/><path fill="#A00" d="M8.38 5.803c1.009-1.192 2.312-1.91 3.736-1.91 3.203 0 5.798 3.63 5.798 8.108 0 4.479-2.596 8.11-5.798 8.11-1.424 0-2.727-.719-3.737-1.91 1.578 2.049 3.924 3.348 6.544 3.348a7.936 7.936 0 0 0 4.407-1.347 10.973 10.973 0 0 0 3.67-8.2c0-3.259-1.418-6.186-3.669-8.2a7.935 7.935 0 0 0-4.408-1.348c-2.62 0-4.966 1.3-6.544 3.349Z"/></symbol>
<symbol id="tor"     viewBox="0 0 24 24"><path fill="#91D" fill-rule="evenodd" d="M1 12a11 11 0 1 0 22 0 11 11 0 0 0-22 0Z" clip-rule="evenodd"/><path fill="#fff" fill-rule="evenodd" d="M12.02 21v-1.33a7.67 7.67 0 0 0 0-15.34V3a9 9 0 0 1 0 18Zm0-4.67a4.33 4.33 0 0 0 0-8.66V6.33a5.67 5.67 0 0 1 0 11.34v-1.34Zm0-6.66a2.33 2.33 0 0 1 0 4.66V9.67Z" clip-rule="evenodd"/></symbol>
<symbol id="vivaldi" viewBox="0 0 24 24"><path fill="#E44" d="M12 23c4.82 0 7.5 0 9.25-1.75S23 16.82 23 12s0-7.5-1.75-9.25S16.82 1 12 1 4.5 1 2.75 2.75C1 4.51 1 7.18 1 12.01c0 4.82 0 7.5 1.75 9.25C4.5 23 7.18 23 12 23Z"/><path fill="#B22" d="M19 8C14 0 .5 7.5 5 16.06l4 6.92c1.04.03 2.09.02 3.14.02 2.11 0 3.81 0 5.2-.15 1.74-.2 2.98-.62 3.94-1.58 1.4-1.4 1.67-3.4 1.72-6.65C20.76 10.75 19 8 19 8Z"/><path fill="#fff" d="M17.66 6.35a8 8 0 1 0-11.32 11.3 8 8 0 0 0 11.32-11.3Zm-.48 3.67-3.96 6.89c-.25.42-.6.68-1.09.72-.54.03-.98-.2-1.25-.67a936.9 936.9 0 0 1-4-6.95c-.89-1.54 1.44-2.8 2.3-1.33.64 1.1 1.25 2.21 1.9 3.3.4.67.98 1.04 1.75 1.08a2.17 2.17 0 0 0 2.04-3.1c-.4-.82.03-1.74.92-1.93 1.14-.26 1.93 1.05 1.39 2Z"/></symbol>
<symbol id="yandex"  viewBox="0 0 24 24"><path fill="#EEE" d="M12 23a11 11 0 1 0 0-22 11 11 0 0 0 0 22Z"/><path fill="red" d="M6 5 4 7l6.5 6.5v8h3v-8L20 7l-2-2-6 6-6-6Z"/></symbol>
</defs></svg>
