<svg xmlns="http://www.w3.org/2000/svg" style="display: none;"><defs>
<symbol id="align" viewBox="0 0 24 24"><path d="M5 3v18h1V3H5Zm2 2h8v6H7V5Zm0 8h13v5H7v-5Z"/></symbol>
<symbol id="align_bottom" viewBox="0 0 24 24"><path d="M3 20v-1h18v1H3Zm3-2V5h5v13H6Zm7 0V9h6v9h-6Z"/></symbol>
<symbol id="align_h_center" viewBox="0 0 24 24"><path d="M13 5h4v6h-4v2h6v5h-6v3h-1v-3H6v-5h6v-2H8V5h4V3h1v2Z"/></symbol>
<symbol id="align_left" viewBox="0 0 24 24"><path d="M5 3v18h1V3H5Zm2 2h8v6H7V5Zm0 8h13v5H7v-5Z"/></symbol>
<symbol id="align_right" viewBox="0 0 24 24"><path d="M21 21h-1V3h1v18Zm-2-3H6v-5h13v5Zm0-7h-9V5h9v6Z"/></symbol>
<symbol id="align_top" viewBox="0 0 24 24"><path d="M3 5V4h18v1H3Zm3 14V6h5v13H6Zm7-5V6h6v8h-6Z"/></symbol>
<symbol id="align_v_center" viewBox="0 0 24 24"><path d="M19 12v4h-6v-4h-2v6H6v-6H3v-1h3V5h5v6h2V7h6v4h2v1h-2Z"/></symbol>
<symbol id="boolean" viewBox="0 0 24 24"><path fill-rule="evenodd" d="M14 6c.542.026 1 .435 1 1v2h2c.542.026 1 .435 1 1v7a1.024 1.024 0 0 1-1 1h-7a1.024 1.024 0 0 1-1-1v-2H7a1.024 1.024 0 0 1-1-1V7c0-.565.458-.974 1-1h7Zm1 8a1.024 1.024 0 0 1-1 1h-4v2h7v-7h-2v4Zm-5 0h4v-4h-4v4Zm-3 0h2v-4c0-.565.458-.974 1-1h4V7H7v7Z" clip-rule="evenodd"/><path d="M14 14h-4v-4h4v4Z" opacity=".5"/></symbol>
<symbol id="color" viewBox="0 0 24 24"><path fill-rule="evenodd" d="M13 5c5 0 9 3 9 7 0 5.04-6 7-10 7S2 17.66 2 13.5c0-2.54 2.06-3.54 4-3.49 1.99 0 2.5.99 4.5.99 1 0 2-.5 1.5-1.5S9.5 8.5 9.5 7s2-2 3.5-2Zm-1.5 9a2 2 0 1 0 0 4 2 2 0 0 0 0-4Zm4.75-.5a1.75 1.75 0 1 0 0 3.5 1.75 1.75 0 0 0 0-3.5Zm-10-2a2.25 2.25 0 1 0 0 4.5 2.25 2.25 0 0 0 0-4.5Zm12.25-1.3a1.5 1.5 0 1 0 0 3 1.5 1.5 0 0 0 0-3ZM17.25 7a1.25 1.25 0 1 0 0 2.5 1.25 1.25 0 0 0 0-2.5Z" clip-rule="evenodd"/></symbol>
<symbol id="exclude" viewBox="0 0 24 24"><path fill-rule="evenodd" d="M14 6c.542.026 1 .435 1 1v2h2c.542.026 1 .435 1 1v7a1.024 1.024 0 0 1-1 1h-7a1.024 1.024 0 0 1-1-1v-2H7a1.024 1.024 0 0 1-1-1V7c0-.565.458-.974 1-1h7Zm1 8a1.024 1.024 0 0 1-1 1h-4v2h7v-7h-2v4Zm-5 0h4v-4h-4v4Zm-3 0h2v-4c0-.565.458-.974 1-1h4V7H7v7Z" clip-rule="evenodd"/><path fill-rule="evenodd" d="M15 14a1.024 1.024 0 0 1-1 1h-4v2h7v-7h-2v4Zm-8 0h2v-4c0-.565.458-.974 1-1h4V7H7v7Z" clip-rule="evenodd" opacity=".5"/></symbol>
<symbol id="favorites" viewBox="0 0 24 24"><path d="M11.05 1.93c.15-.46.45-.93.95-.93.5 0 .8.47.95.93l1.74 5.36a1 1 0 0 0 .96.7h5.64c.74 0 1.21.41 1.21.86 0 .3-.19.64-.63.94l-4.56 3.32a1 1 0 0 0-.36 1.12l1.74 5.36c.23.82-.19 1.41-.69 1.41-.25 0-.48-.08-.85-.3l-4.56-3.3a1 1 0 0 0-1.18 0l-4.56 3.3c-.38.23-.6.3-.85.3-.5 0-.91-.6-.69-1.41l1.74-5.36a1 1 0 0 0-.36-1.12L2.13 9.79c-.44-.3-.63-.64-.63-.94 0-.45.47-.86 1.21-.87h5.64a1 1 0 0 0 .96-.69l1.74-5.36Z"/></symbol>
<symbol id="figma" viewBox="0 0 24 24"><rect width="24" height="24" fill="#000" rx="5"/><path fill="#24CB71" d="M6 18a3 3 0 0 1 3-3h3v3a3 3 0 1 1-6 0Z"/><path fill="#FF7237" d="M12 3v6h3a3 3 0 1 0 0-6h-3Z"/><path fill="#00B6FF" d="M14.97 15a3 3 0 1 0 0-6 3 3 0 0 0 0 6Z"/><path fill="#FF3737" d="M6 6a3 3 0 0 0 3 3h3V3H9a3 3 0 0 0-3 3Z"/><path fill="#874FFF" d="M6 12a3 3 0 0 0 3 3h3V9H9a3 3 0 0 0-3 3Z"/></symbol>
<symbol id="flatten" viewBox="0 0 24 24"><path d="M15.5 17h-8v-1h8v1Zm1-3h-10v-1h10v1ZM12 9.085l1.793-1.792L14.5 8l-3 3-3-3 .707-.707L11 9.085V5.5h1v3.585Z"/></symbol>
<symbol id="flip_horizontal" viewBox="0 0 24 24"><path d="M9 17H3l6-9v9Z" opacity=".5"/><path d="M20 17h-6V8l6 9Zm-8-1h-1v-2h1v2Zm0-3h-1v-2h1v2Zm0-3h-1V8h1v2Zm0-3h-1V5h1v2Zm0 12h-1v-2h1v2Z"/></symbol>
<symbol id="flip_vertical" viewBox="0 0 24 24"><path d="M7 9V3l9 6H7Z" opacity=".5"/><path d="M7 20v-6h9l-9 6Zm1-8v-1h2v1H8Zm3 0v-1h2v1h-2Zm3 0v-1h2v1h-2Zm3 0v-1h2v1h-2ZM5 12v-1h2v1H5Z"/></symbol>
<symbol id="intersect" viewBox="0 0 24 24"><path fill-rule="evenodd" d="M14 6c.542.026 1 .435 1 1v2h2c.542.026 1 .435 1 1v7a1.024 1.024 0 0 1-1 1h-7a1.024 1.024 0 0 1-1-1v-2H7a1.024 1.024 0 0 1-1-1V7c0-.565.458-.974 1-1h7Zm1 8a1.024 1.024 0 0 1-1 1h-4v2h7v-7h-2v4Zm-5 0h4v-4h-4v4Zm-3 0h2v-4c0-.565.458-.974 1-1h4V7H7v7Z" clip-rule="evenodd"/><path d="M14 14h-4v-4h4v4Z" opacity=".5"/></symbol>
<symbol id="outline_stroke" viewBox="0 0 24 24"><path fill-rule="evenodd" d="M15.5 10a5.5 5.5 0 0 0-5.5 5.5c0 .817-.683 1.5-1.5 1.5S7 16.317 7 15.5A8.5 8.5 0 0 1 15.5 7c.817 0 1.5.683 1.5 1.5s-.683 1.5-1.5 1.5Zm0 1a4.5 4.5 0 0 0-4.5 4.5c0 1.362-1.138 2.5-2.5 2.5S6 16.862 6 15.5A9.5 9.5 0 0 1 15.5 6C16.862 6 18 7.138 18 8.5S16.862 11 15.5 11ZM9 15.5A6.5 6.5 0 0 1 15.5 9c.265 0 .5-.235.5-.5s-.235-.5-.5-.5A7.5 7.5 0 0 0 8 15.5c0 .265.235.5.5.5s.5-.235.5-.5Z" clip-rule="evenodd"/></symbol>
<symbol id="panels" viewBox="0 0 24 24"><path fill-rule="evenodd" d="M20 20H4V4h16v16Zm-8-10v1h6v-1h-6Zm0-1h6V8h-6v1Zm0-3v1h6V6h-6Z" clip-rule="evenodd"/></symbol>
<symbol id="select" viewBox="0 0 24 24"><path d="M6 3v19l5-6h8L6 3Z"/></symbol>
<symbol id="snap" viewBox="0 0 24 24"><path d="M8.16 11.22c-.6.63-.96 1.43-.96 2.31a3.26 3.26 0 0 0 5.58 2.31l3.81-3.8 2.26 2.26-3.8 3.8A6.45 6.45 0 0 1 10.5 20 6.53 6.53 0 0 1 4 13.53c0-1.73.71-3.33 1.9-4.57l3.8-3.81 2.27 2.26-3.81 3.81Zm5.15-5.15L11.05 3.8l1.8-1.8 2.26 2.26-1.8 1.8Zm6.89 6.88-2.27-2.26 1.8-1.8L22 11.15l-1.8 1.8Z"/></symbol>
<symbol id="subtract" viewBox="0 0 24 24"><path fill-rule="evenodd" d="M15 7v2h2c.542.026 1 .435 1 1v7a1.024 1.024 0 0 1-1 1h-7a1.024 1.024 0 0 1-1-1v-2H7a1.024 1.024 0 0 1-1-1V7c0-.565.458-.974 1-1h7c.542.026 1 .435 1 1Zm-8 7h7V7H7v7Zm3 3h7v-7h-2v4a1.024 1.024 0 0 1-1 1h-4v2Z" clip-rule="evenodd"/><path d="M17 17h-7v-2h4a1 1 0 0 0 1-1v-4h2v7Z" opacity=".5"/></symbol>
<symbol id="union" viewBox="0 0 24 24"><path fill-rule="evenodd" d="M14 6a1 1 0 0 1 1 1v2h2a1 1 0 0 1 1 1v7a1 1 0 0 1-1 1h-7a1 1 0 0 1-1-1v-2H7a1 1 0 0 1-1-1V7a1 1 0 0 1 1-1h7Zm-7 8h3v3h7v-7h-3V7H7v7Z" clip-rule="evenodd"/><path d="M14 10h3v7h-7v-3H7V7h7v3Z" opacity=".5"/></symbol>
<symbol id="view" viewBox="0 0 24 24"><path fill-rule="evenodd" d="M22 5.5v10c0 1-.5 1.5-1.5 1.5H14v3h3v1H7v-1h3v-3H3.5c-1 0-1.5-.5-1.5-1.5v-10C2 4.5 2.5 4 3.5 4h17c1 0 1.5.5 1.5 1.5Zm-18.5 10h17v-10h-17v10Z" clip-rule="evenodd"/></symbol>
</defs></svg>