<svg xmlns="http://www.w3.org/2000/svg" style="display: none;"><defs>
<symbol id="adobe_indesign" viewBox="0 0 24 24"><rect fill="#49021F" width="24" height="24" rx="5"/><path fill="#F36" fill-rule="evenodd" d="M17 17c-3.45 1.03-7 .02-7-3.75 0-2.78 2.6-4.42 5-4.02V6h2v11Zm-2.57-5.97c-1.23 0-2.18.72-2.18 2.22 0 1.75.95 2.21 2.18 2.21.2 0 .39-.03.57-.07V11.1a2.2 2.2 0 0 0-.57-.08Z" clip-rule="evenodd"/><path fill="#F36" d="M8 17H6V7h2v10Z"/></symbol>
<symbol id="refpoint/top_left" viewBox="0 0 24 24"><path d="M8 5h2V4h4v1h2V4h4v4h-1v2h1v4h-1v2h1v4h-4v-1h-2v1h-4v-1H8v1H4v-4h1v-2H4v-4h1V8H4V4h4v1ZM5 19h2v-2H5v2Zm6 0h2v-2h-2v2Zm6 0h2v-2h-2v2ZM8 8H6v2h2v4H6v2h2v2h2v-2h4v2h2v-2h2v-2h-2v-4h2V8h-2V6h-2v2h-4V6H8v2Zm6 6h-4v-4h4v4Zm-9-1h2v-2H5v2Zm6-2v2h2v-2h-2Zm6 2h2v-2h-2v2ZM5 7h2V5H5v2Zm6 0h2V5h-2v2Zm6 0h2V5h-2v2Z"/><path d="M4 4h4v4H4z"/></symbol>
<symbol id="refpoint/top_middle" viewBox="0 0 24 24"><path d="M8 5h2V4h4v1h2V4h4v4h-1v2h1v4h-1v2h1v4h-4v-1h-2v1h-4v-1H8v1H4v-4h1v-2H4v-4h1V8H4V4h4v1ZM5 19h2v-2H5v2Zm6 0h2v-2h-2v2Zm6 0h2v-2h-2v2ZM8 8H6v2h2v4H6v2h2v2h2v-2h4v2h2v-2h2v-2h-2v-4h2V8h-2V6h-2v2h-4V6H8v2Zm6 6h-4v-4h4v4Zm-9-1h2v-2H5v2Zm6-2v2h2v-2h-2Zm6 2h2v-2h-2v2ZM5 7h2V5H5v2Zm6 0h2V5h-2v2Zm6 0h2V5h-2v2Z"/><path d="M10 4h4v4h-4z"/></symbol>
<symbol id="refpoint/top_right" viewBox="0 0 24 24"><path d="M8 5h2V4h4v1h2V4h4v4h-1v2h1v4h-1v2h1v4h-4v-1h-2v1h-4v-1H8v1H4v-4h1v-2H4v-4h1V8H4V4h4v1ZM5 19h2v-2H5v2Zm6 0h2v-2h-2v2Zm6 0h2v-2h-2v2ZM8 8H6v2h2v4H6v2h2v2h2v-2h4v2h2v-2h2v-2h-2v-4h2V8h-2V6h-2v2h-4V6H8v2Zm6 6h-4v-4h4v4Zm-9-1h2v-2H5v2Zm6-2v2h2v-2h-2Zm6 2h2v-2h-2v2ZM5 7h2V5H5v2Zm6 0h2V5h-2v2Zm6 0h2V5h-2v2Z"/><path d="M16 4h4v4h-4z"/></symbol>
<symbol id="refpoint/middle_left" viewBox="0 0 24 24"><path d="M8 5h2V4h4v1h2V4h4v4h-1v2h1v4h-1v2h1v4h-4v-1h-2v1h-4v-1H8v1H4v-4h1v-2H4v-4h1V8H4V4h4v1ZM5 19h2v-2H5v2Zm6 0h2v-2h-2v2Zm6 0h2v-2h-2v2ZM8 8H6v2h2v4H6v2h2v2h2v-2h4v2h2v-2h2v-2h-2v-4h2V8h-2V6h-2v2h-4V6H8v2Zm6 6h-4v-4h4v4Zm-9-1h2v-2H5v2Zm6-2v2h2v-2h-2Zm6 2h2v-2h-2v2ZM5 7h2V5H5v2Zm6 0h2V5h-2v2Zm6 0h2V5h-2v2Z"/><path d="M4 10h4v4H4z"/></symbol>
<symbol id="refpoint/center" viewBox="0 0 24 24"><path d="M8 5h2V4h4v1h2V4h4v4h-1v2h1v4h-1v2h1v4h-4v-1h-2v1h-4v-1H8v1H4v-4h1v-2H4v-4h1V8H4V4h4v1ZM5 19h2v-2H5v2Zm6 0h2v-2h-2v2Zm6 0h2v-2h-2v2ZM8 8H6v2h2v4H6v2h2v2h2v-2h4v2h2v-2h2v-2h-2v-4h2V8h-2V6h-2v2h-4V6H8v2Zm6 6h-4v-4h4v4Zm-9-1h2v-2H5v2Zm6-2v2h2v-2h-2Zm6 2h2v-2h-2v2ZM5 7h2V5H5v2Zm6 0h2V5h-2v2Zm6 0h2V5h-2v2Z"/><path d="M10 10h4v4h-4z"/></symbol>
<symbol id="refpoint/middle_right" viewBox="0 0 24 24"><path d="M8 5h2V4h4v1h2V4h4v4h-1v2h1v4h-1v2h1v4h-4v-1h-2v1h-4v-1H8v1H4v-4h1v-2H4v-4h1V8H4V4h4v1ZM5 19h2v-2H5v2Zm6 0h2v-2h-2v2Zm6 0h2v-2h-2v2ZM8 8H6v2h2v4H6v2h2v2h2v-2h4v2h2v-2h2v-2h-2v-4h2V8h-2V6h-2v2h-4V6H8v2Zm6 6h-4v-4h4v4Zm-9-1h2v-2H5v2Zm6-2v2h2v-2h-2Zm6 2h2v-2h-2v2ZM5 7h2V5H5v2Zm6 0h2V5h-2v2Zm6 0h2V5h-2v2Z"/><path d="M16 10h4v4h-4z"/></symbol>
<symbol id="refpoint/bottom_left" viewBox="0 0 24 24"><path d="M8 5h2V4h4v1h2V4h4v4h-1v2h1v4h-1v2h1v4h-4v-1h-2v1h-4v-1H8v1H4v-4h1v-2H4v-4h1V8H4V4h4v1ZM5 19h2v-2H5v2Zm6 0h2v-2h-2v2Zm6 0h2v-2h-2v2ZM8 8H6v2h2v4H6v2h2v2h2v-2h4v2h2v-2h2v-2h-2v-4h2V8h-2V6h-2v2h-4V6H8v2Zm6 6h-4v-4h4v4Zm-9-1h2v-2H5v2Zm6-2v2h2v-2h-2Zm6 2h2v-2h-2v2ZM5 7h2V5H5v2Zm6 0h2V5h-2v2Zm6 0h2V5h-2v2Z"/><path d="M4 16h4v4H4z"/></symbol>
<symbol id="refpoint/bottom_middle" viewBox="0 0 24 24"><path d="M8 5h2V4h4v1h2V4h4v4h-1v2h1v4h-1v2h1v4h-4v-1h-2v1h-4v-1H8v1H4v-4h1v-2H4v-4h1V8H4V4h4v1ZM5 19h2v-2H5v2Zm6 0h2v-2h-2v2Zm6 0h2v-2h-2v2ZM8 8H6v2h2v4H6v2h2v2h2v-2h4v2h2v-2h2v-2h-2v-4h2V8h-2V6h-2v2h-4V6H8v2Zm6 6h-4v-4h4v4Zm-9-1h2v-2H5v2Zm6-2v2h2v-2h-2Zm6 2h2v-2h-2v2ZM5 7h2V5H5v2Zm6 0h2V5h-2v2Zm6 0h2V5h-2v2Z"/><path d="M10 16h4v4h-4z"/></symbol>
<symbol id="refpoint/bottom_right" viewBox="0 0 24 24"><path d="M8 5h2V4h4v1h2V4h4v4h-1v2h1v4h-1v2h1v4h-4v-1h-2v1h-4v-1H8v1H4v-4h1v-2H4v-4h1V8H4V4h4v1ZM5 19h2v-2H5v2Zm6 0h2v-2h-2v2Zm6 0h2v-2h-2v2ZM8 8H6v2h2v4H6v2h2v2h2v-2h4v2h2v-2h2v-2h-2v-4h2V8h-2V6h-2v2h-4V6H8v2Zm6 6h-4v-4h4v4Zm-9-1h2v-2H5v2Zm6-2v2h2v-2h-2Zm6 2h2v-2h-2v2ZM5 7h2V5H5v2Zm6 0h2V5h-2v2Zm6 0h2V5h-2v2Z"/><path d="M16 16h4v4h-4z"/></symbol>
</defs></svg>